<svg width="107" height="40" viewBox="0 0 107 40" fill="none" xmlns="http://www.w3.org/2000/svg">
<rect x="0.75" y="0.75" width="105" height="38" rx="6" fill="white"/>
<rect x="0.75" y="0.75" width="105" height="38" rx="6" stroke="#C5C5C5" stroke-width="1.5"/>
<path d="M14.3381 25.75H12.2261V14.582H17.2661C17.7781 14.582 18.2367 14.662 18.6421 14.822C19.0474 14.982 19.3887 15.2167 19.6661 15.526C19.9541 15.8247 20.1727 16.1873 20.3221 16.614C20.4821 17.0407 20.5621 17.5153 20.5621 18.038C20.5621 18.806 20.3861 19.4673 20.0341 20.022C19.6927 20.5767 19.1754 20.9713 18.4821 21.206L20.7701 25.75H18.4181L16.3381 21.446H14.3381V25.75ZM17.0581 19.67C17.4634 19.67 17.7834 19.5633 18.0181 19.35C18.2527 19.126 18.3701 18.8113 18.3701 18.406V17.67C18.3701 17.2647 18.2527 16.9553 18.0181 16.742C17.7834 16.5287 17.4634 16.422 17.0581 16.422H14.3381V19.67H17.0581ZM27.7151 24.358H27.6351C27.5604 24.5713 27.4591 24.774 27.3311 24.966C27.2137 25.1473 27.0591 25.3127 26.8671 25.462C26.6857 25.6113 26.4617 25.7287 26.1951 25.814C25.9391 25.8993 25.6404 25.942 25.2991 25.942C24.4351 25.942 23.7737 25.6593 23.3151 25.094C22.8564 24.5287 22.6271 23.7233 22.6271 22.678V17.398H24.6751V22.47C24.6751 23.046 24.7871 23.4887 25.0111 23.798C25.2351 24.0967 25.5924 24.246 26.0831 24.246C26.2857 24.246 26.4831 24.2193 26.6751 24.166C26.8777 24.1127 27.0537 24.0327 27.2031 23.926C27.3524 23.8087 27.4751 23.67 27.5711 23.51C27.6671 23.3393 27.7151 23.142 27.7151 22.918V17.398H29.7631V25.75H27.7151V24.358ZM32.1293 25.75V17.398H34.1773V18.79H34.2573C34.428 18.342 34.6946 17.9687 35.0573 17.67C35.4306 17.3607 35.9426 17.206 36.5933 17.206C37.4573 17.206 38.1186 17.4887 38.5773 18.054C39.036 18.6193 39.2653 19.4247 39.2653 20.47V25.75H37.2173V20.678C37.2173 20.0807 37.1106 19.6327 36.8973 19.334C36.684 19.0353 36.332 18.886 35.8413 18.886C35.628 18.886 35.42 18.918 35.2173 18.982C35.0253 19.0353 34.8493 19.1207 34.6893 19.238C34.54 19.3447 34.4173 19.4833 34.3213 19.654C34.2253 19.814 34.1773 20.006 34.1773 20.23V25.75H32.1293ZM48.9168 25.942C47.9568 25.942 47.1408 25.7713 46.4688 25.43C45.8075 25.0887 45.2368 24.6407 44.7568 24.086L46.1808 22.71C46.5648 23.158 46.9915 23.4993 47.4608 23.734C47.9408 23.9687 48.4688 24.086 49.0448 24.086C49.6955 24.086 50.1861 23.9473 50.5168 23.67C50.8475 23.382 51.0128 22.998 51.0128 22.518C51.0128 22.1447 50.9061 21.8407 50.6928 21.606C50.4795 21.3713 50.0795 21.2007 49.4928 21.094L48.4368 20.934C46.2075 20.582 45.0928 19.4993 45.0928 17.686C45.0928 17.1847 45.1835 16.7313 45.3648 16.326C45.5568 15.9207 45.8288 15.574 46.1808 15.286C46.5328 14.998 46.9541 14.7793 47.4448 14.63C47.9461 14.47 48.5115 14.39 49.1408 14.39C49.9835 14.39 50.7195 14.5287 51.3488 14.806C51.9781 15.0833 52.5168 15.494 52.9648 16.038L51.5248 17.398C51.2475 17.0567 50.9115 16.7793 50.5168 16.566C50.1221 16.3527 49.6261 16.246 49.0288 16.246C48.4208 16.246 47.9621 16.3633 47.6528 16.598C47.3541 16.822 47.2048 17.142 47.2048 17.558C47.2048 17.9847 47.3275 18.2993 47.5728 18.502C47.8181 18.7047 48.2128 18.854 48.7568 18.95L49.7968 19.142C50.9275 19.3447 51.7595 19.7073 52.2928 20.23C52.8368 20.742 53.1088 21.462 53.1088 22.39C53.1088 22.9233 53.0128 23.4087 52.8208 23.846C52.6395 24.2727 52.3675 24.646 52.0048 24.966C51.6528 25.2753 51.2155 25.5153 50.6928 25.686C50.1808 25.8567 49.5888 25.942 48.9168 25.942ZM58.4741 25.942C57.8554 25.942 57.3007 25.8407 56.8101 25.638C56.3301 25.4247 55.9194 25.1313 55.5781 24.758C55.2474 24.374 54.9914 23.9153 54.8101 23.382C54.6287 22.838 54.5381 22.23 54.5381 21.558C54.5381 20.8967 54.6234 20.2993 54.7941 19.766C54.9754 19.2327 55.2314 18.7793 55.5621 18.406C55.8927 18.022 56.2981 17.7287 56.7781 17.526C57.2581 17.3127 57.8021 17.206 58.4101 17.206C59.0607 17.206 59.6261 17.318 60.1061 17.542C60.5861 17.766 60.9807 18.07 61.2901 18.454C61.5994 18.838 61.8287 19.286 61.9781 19.798C62.1381 20.2993 62.2181 20.838 62.2181 21.414V22.086H56.6661V22.294C56.6661 22.902 56.8367 23.3927 57.1781 23.766C57.5194 24.1287 58.0261 24.31 58.6981 24.31C59.2101 24.31 59.6261 24.2033 59.9461 23.99C60.2767 23.7767 60.5701 23.5047 60.8261 23.174L61.9301 24.406C61.5887 24.886 61.1194 25.2647 60.5221 25.542C59.9354 25.8087 59.2527 25.942 58.4741 25.942ZM58.4421 18.742C57.8981 18.742 57.4661 18.9233 57.1461 19.286C56.8261 19.6487 56.6661 20.118 56.6661 20.694V20.822H60.0901V20.678C60.0901 20.102 59.9461 19.638 59.6581 19.286C59.3807 18.9233 58.9754 18.742 58.4421 18.742ZM70.1639 25.75C69.7159 25.75 69.3586 25.622 69.0919 25.366C68.8359 25.0993 68.6759 24.7473 68.6119 24.31H68.5159C68.3773 24.854 68.0946 25.2647 67.6679 25.542C67.2413 25.8087 66.7133 25.942 66.0839 25.942C65.2306 25.942 64.5746 25.718 64.1159 25.27C63.6573 24.822 63.4279 24.2247 63.4279 23.478C63.4279 22.614 63.7373 21.974 64.3559 21.558C64.9746 21.1313 65.8546 20.918 66.9959 20.918H68.4199V20.31C68.4199 19.8407 68.2973 19.478 68.0519 19.222C67.8066 18.966 67.4119 18.838 66.8679 18.838C66.3879 18.838 65.9986 18.9447 65.6999 19.158C65.4119 19.3607 65.1666 19.606 64.9639 19.894L63.7479 18.806C64.0573 18.326 64.4679 17.942 64.9799 17.654C65.4919 17.3553 66.1693 17.206 67.0119 17.206C68.1426 17.206 69.0013 17.462 69.5879 17.974C70.1746 18.486 70.4679 19.222 70.4679 20.182V24.118H71.2999V25.75H70.1639ZM66.7719 24.454C67.2306 24.454 67.6199 24.3527 67.9399 24.15C68.2599 23.9473 68.4199 23.6487 68.4199 23.254V22.15H67.1079C66.0413 22.15 65.5079 22.4913 65.5079 23.174V23.446C65.5079 23.7873 65.6146 24.0433 65.8279 24.214C66.0519 24.374 66.3666 24.454 66.7719 24.454ZM72.9574 25.75V17.398H75.0054V19.126H75.0854C75.1388 18.902 75.2188 18.6887 75.3254 18.486C75.4428 18.2727 75.5921 18.086 75.7734 17.926C75.9548 17.766 76.1681 17.638 76.4134 17.542C76.6694 17.446 76.9628 17.398 77.2934 17.398H77.7414V19.334H77.1014C76.4081 19.334 75.8854 19.4353 75.5334 19.638C75.1814 19.8407 75.0054 20.1713 75.0054 20.63V25.75H72.9574ZM82.4566 25.942C81.8379 25.942 81.2886 25.8407 80.8086 25.638C80.3286 25.4353 79.9232 25.142 79.5926 24.758C79.2726 24.374 79.0272 23.9153 78.8566 23.382C78.6859 22.838 78.6006 22.23 78.6006 21.558C78.6006 20.886 78.6859 20.2833 78.8566 19.75C79.0272 19.2167 79.2726 18.7633 79.5926 18.39C79.9232 18.006 80.3286 17.7127 80.8086 17.51C81.2886 17.3073 81.8379 17.206 82.4566 17.206C83.2992 17.206 83.9926 17.3927 84.5366 17.766C85.0912 18.1393 85.4912 18.6567 85.7366 19.318L84.0566 20.07C83.9606 19.718 83.7792 19.43 83.5126 19.206C83.2566 18.9713 82.9046 18.854 82.4566 18.854C81.8806 18.854 81.4486 19.0353 81.1606 19.398C80.8832 19.7607 80.7446 20.2353 80.7446 20.822V22.342C80.7446 22.9287 80.8832 23.4033 81.1606 23.766C81.4486 24.118 81.8806 24.294 82.4566 24.294C82.9472 24.294 83.3259 24.1713 83.5926 23.926C83.8592 23.67 84.0672 23.3553 84.2166 22.982L85.7846 23.734C85.5072 24.47 85.0859 25.0247 84.5206 25.398C83.9552 25.7607 83.2672 25.942 82.4566 25.942ZM87.3637 13.91H89.4117V18.79H89.4917C89.6624 18.342 89.929 17.9687 90.2917 17.67C90.665 17.3607 91.177 17.206 91.8277 17.206C92.6917 17.206 93.353 17.4887 93.8117 18.054C94.2704 18.6193 94.4997 19.4247 94.4997 20.47V25.75H92.4517V20.678C92.4517 20.0807 92.345 19.6327 92.1317 19.334C91.9184 19.0353 91.5664 18.886 91.0757 18.886C90.8624 18.886 90.6544 18.918 90.4517 18.982C90.2597 19.0353 90.0837 19.1207 89.9237 19.238C89.7744 19.3447 89.6517 19.4833 89.5557 19.654C89.4597 19.814 89.4117 20.006 89.4117 20.23V25.75H87.3637V13.91Z" fill="#2F55D9"/>
</svg>
